<svg xmlns="http://www.w3.org/2000/svg" viewBox="0 0 900 600" role="img" aria-label="Бургас">
  <rect width="900" height="600" fill="#b8e6ff"/>
  <circle cx="725" cy="100" r="54" fill="#fbbf24"/>
  <path d="M0 345 C180 305 300 350 450 315 C610 280 720 305 900 270 L900 600 L0 600Z" fill="#249db6"/>
  <path d="M0 455 C190 420 330 465 510 430 C680 395 785 430 900 400 L900 600 L0 600Z" fill="#0c6c88"/>
  <rect x="0" y="500" width="900" height="100" fill="#e7b96e"/>
  <path d="M145 355 L230 355 L255 430 L120 430Z" fill="#ffffff"/>
  <path d="M430 325 L520 325 L560 430 L400 430Z" fill="#f8fafc"/>
  <path d="M685 350 L770 350 L800 430 L660 430Z" fill="#ffffff"/>
  <path d="M125 430 L805 430" stroke="#6b4f32" stroke-width="13" stroke-linecap="round"/>
  <path d="M220 265 L220 430 M510 245 L510 430 M755 280 L755 430" stroke="#4b5563" stroke-width="8"/>
  <text x="54" y="82" fill="#075985" font-family="Arial, sans-serif" font-size="42" font-weight="700">Бургас</text>
</svg>
