<svg xmlns="http://www.w3.org/2000/svg" viewBox="0 0 900 600" role="img" aria-label="Солун">
  <rect width="900" height="600" fill="#c7e8ff"/>
  <circle cx="760" cy="105" r="54" fill="#fbbf24"/>
  <path d="M0 365 C165 330 290 380 455 340 C620 305 760 340 900 300 L900 600 L0 600Z" fill="#2697b7"/>
  <path d="M0 465 C185 430 330 475 510 435 C680 398 790 430 900 405 L900 600 L0 600Z" fill="#0f6f8f"/>
  <rect x="135" y="315" width="145" height="195" fill="#c08457"/>
  <rect x="155" y="280" width="105" height="35" fill="#9a5b3d"/>
  <rect x="175" y="355" width="65" height="65" rx="32" fill="#fef3c7"/>
  <rect x="420" y="330" width="330" height="110" rx="8" fill="#f8fafc"/>
  <rect x="470" y="360" width="50" height="55" fill="#60a5fa"/>
  <rect x="560" y="360" width="50" height="55" fill="#60a5fa"/>
  <rect x="650" y="360" width="50" height="55" fill="#60a5fa"/>
  <text x="54" y="82" fill="#075985" font-family="Arial, sans-serif" font-size="42" font-weight="700">Солун</text>
</svg>
