<svg xmlns="http://www.w3.org/2000/svg" viewBox="0 0 900 600" role="img" aria-label="Варна">
  <rect width="900" height="600" fill="#9bd8ff"/>
  <circle cx="755" cy="105" r="55" fill="#ffd166"/>
  <path d="M0 350 C150 315 260 370 420 335 C590 300 720 330 900 290 L900 600 L0 600Z" fill="#1f9bb4"/>
  <path d="M0 440 C170 400 280 465 450 420 C610 380 750 420 900 375 L900 600 L0 600Z" fill="#0f6f8f"/>
  <path d="M0 510 C185 470 360 515 525 475 C680 438 795 470 900 445 L900 600 L0 600Z" fill="#f6d596"/>
  <path d="M160 275 L245 480 L325 275Z" fill="#ffffff"/>
  <path d="M245 480 L245 240" stroke="#4b5563" stroke-width="10"/>
  <rect x="610" y="300" width="170" height="150" rx="8" fill="#f7fafc"/>
  <rect x="640" y="330" width="35" height="45" fill="#4fb3d9"/>
  <rect x="710" y="330" width="35" height="45" fill="#4fb3d9"/>
  <text x="54" y="82" fill="#064e6b" font-family="Arial, sans-serif" font-size="42" font-weight="700">Варна</text>
</svg>
